HIERARCHY
ROOT mixamorig:Hips
{
	OFFSET -0.000008 104.274872 1.554316
	CHANNELS 6 Xposition Yposition Zposition Xrotation Yrotation Zrotation
	JOINT mixamorig:Spine
	{
		OFFSET -0.000005 10.181595 0.131519
		CHANNELS 6 Xposition Yposition Zposition Xrotation Yrotation Zrotation
		JOINT mixamorig:Spine1
		{
			OFFSET -0.000000 9.893959 -1.470707
			CHANNELS 6 Xposition Yposition Zposition Xrotation Yrotation Zrotation
			JOINT mixamorig:Spine2
			{
				OFFSET -0.000000 9.220757 -1.370641
				CHANNELS 6 Xposition Yposition Zposition Xrotation Yrotation Zrotation
				JOINT mixamorig:Neck
				{
					OFFSET 0.000001 16.740417 -2.049036
					CHANNELS 6 Xposition Yposition Zposition Xrotation Yrotation Zrotation
					JOINT mixamorig:Head
					{
						OFFSET 0.000000 9.617874 1.685006
						CHANNELS 6 Xposition Yposition Zposition Xrotation Yrotation Zrotation
						JOINT mixamorig:HeadTop_End
						{
							OFFSET 0.000002 22.037354 7.501101
							CHANNELS 6 Xposition Yposition Zposition Xrotation Yrotation Zrotation
							End Site
							{
								OFFSET 0.000168 2310.654297 -282.823242
							}
						}
					}
				}
				JOINT mixamorig:RightShoulder
				{
					OFFSET -4.569970 11.014908 -2.160885
					CHANNELS 6 Xposition Yposition Zposition Xrotation Yrotation Zrotation
					JOINT mixamorig:RightArm
					{
						OFFSET -10.592851 -0.524811 -2.232101
						CHANNELS 6 Xposition Yposition Zposition Xrotation Yrotation Zrotation
						JOINT mixamorig:RightForeArm
						{
							OFFSET -27.841511 0.000031 -0.000004
							CHANNELS 6 Xposition Yposition Zposition Xrotation Yrotation Zrotation
							JOINT mixamorig:RightHand
							{
								OFFSET -28.328831 -0.000015 0.000015
								CHANNELS 6 Xposition Yposition Zposition Xrotation Yrotation Zrotation
								JOINT mixamorig:RightHandThumb1
								{
									OFFSET -2.464806 -1.573990 2.681852
									CHANNELS 6 Xposition Yposition Zposition Xrotation Yrotation Zrotation
									JOINT mixamorig:RightHandThumb2
									{
										OFFSET -3.215179 -1.872803 1.924282
										CHANNELS 6 Xposition Yposition Zposition Xrotation Yrotation Zrotation
										JOINT mixamorig:RightHandThumb3
										{
											OFFSET -2.654831 -1.527969 1.512609
											CHANNELS 6 Xposition Yposition Zposition Xrotation Yrotation Zrotation
											JOINT mixamorig:RightHandThumb4
											{
												OFFSET -2.018814 -1.152008 1.108052
												CHANNELS 6 Xposition Yposition Zposition Xrotation Yrotation Zrotation
												End Site
												{
													OFFSET -188.809540 -114.533607 132.431396
												}
											}
										}
									}
								}
								JOINT mixamorig:RightHandIndex1
								{
									OFFSET -9.108284 -0.517868 2.259835
									CHANNELS 6 Xposition Yposition Zposition Xrotation Yrotation Zrotation
									JOINT mixamorig:RightHandIndex2
									{
										OFFSET -3.699989 0.000000 0.001215
										CHANNELS 6 Xposition Yposition Zposition Xrotation Yrotation Zrotation
										JOINT mixamorig:RightHandIndex3
										{
											OFFSET -2.850006 0.000031 -0.000522
											CHANNELS 6 Xposition Yposition Zposition Xrotation Yrotation Zrotation
											JOINT mixamorig:RightHandIndex4
											{
												OFFSET -2.772186 -0.000015 -0.000020
												CHANNELS 6 Xposition Yposition Zposition Xrotation Yrotation Zrotation
												End Site
												{
													OFFSET -277.218445 0.000000 -0.050231
												}
											}
										}
									}
								}
								JOINT mixamorig:RightHandMiddle1
								{
									OFFSET -9.532516 -0.000031 -0.000023
									CHANNELS 6 Xposition Yposition Zposition Xrotation Yrotation Zrotation
									JOINT mixamorig:RightHandMiddle2
									{
										OFFSET -3.700005 -0.000015 0.003713
										CHANNELS 6 Xposition Yposition Zposition Xrotation Yrotation Zrotation
										JOINT mixamorig:RightHandMiddle3
										{
											OFFSET -2.949974 0.000015 -0.002054
											CHANNELS 6 Xposition Yposition Zposition Xrotation Yrotation Zrotation
											JOINT mixamorig:RightHandMiddle4
											{
												OFFSET -2.946640 0.000000 -0.000156
												CHANNELS 6 Xposition Yposition Zposition Xrotation Yrotation Zrotation
												End Site
												{
													OFFSET -294.664337 0.000000 -0.113670
												}
											}
										}
									}
								}
								JOINT mixamorig:RightHandRing1
								{
									OFFSET -9.103600 -0.043076 -1.865134
									CHANNELS 6 Xposition Yposition Zposition Xrotation Yrotation Zrotation
									JOINT mixamorig:RightHandRing2
									{
										OFFSET -3.379288 0.000000 -0.001055
										CHANNELS 6 Xposition Yposition Zposition Xrotation Yrotation Zrotation
										JOINT mixamorig:RightHandRing3
										{
											OFFSET -2.889687 -0.000015 0.000379
											CHANNELS 6 Xposition Yposition Zposition Xrotation Yrotation Zrotation
											JOINT mixamorig:RightHandRing4
											{
												OFFSET -2.638809 -0.000015 0.000941
												CHANNELS 6 Xposition Yposition Zposition Xrotation Yrotation Zrotation
												End Site
												{
													OFFSET -263.880371 0.000000 0.516020
												}
											}
										}
									}
								}
								JOINT mixamorig:RightHandPinky1
								{
									OFFSET -8.076683 -0.486710 -3.806280
									CHANNELS 6 Xposition Yposition Zposition Xrotation Yrotation Zrotation
									JOINT mixamorig:RightHandPinky2
									{
										OFFSET -3.600014 -0.000015 -0.003747
										CHANNELS 6 Xposition Yposition Zposition Xrotation Yrotation Zrotation
										JOINT mixamorig:RightHandPinky3
										{
											OFFSET -2.099983 0.000000 -0.005739
											CHANNELS 6 Xposition Yposition Zposition Xrotation Yrotation Zrotation
											JOINT mixamorig:RightHandPinky4
											{
												OFFSET -2.115768 -0.000031 -0.003680
												CHANNELS 6 Xposition Yposition Zposition Xrotation Yrotation Zrotation
												End Site
												{
													OFFSET -211.577087 0.000000 -0.350686
												}
											}
										}
									}
								}
							}
						}
					}
				}
				JOINT mixamorig:LeftShoulder
				{
					OFFSET 4.570447 11.014725 -2.160855
					CHANNELS 6 Xposition Yposition Zposition Xrotation Yrotation Zrotation
					JOINT mixamorig:LeftArm
					{
						OFFSET 10.592371 -0.524597 -2.232119
						CHANNELS 6 Xposition Yposition Zposition Xrotation Yrotation Zrotation
						JOINT mixamorig:LeftForeArm
						{
							OFFSET 27.841532 -0.000031 0.000026
							CHANNELS 6 Xposition Yposition Zposition Xrotation Yrotation Zrotation
							JOINT mixamorig:LeftHand
							{
								OFFSET 28.328846 -0.000061 0.000022
								CHANNELS 6 Xposition Yposition Zposition Xrotation Yrotation Zrotation
								JOINT mixamorig:LeftHandThumb1
								{
									OFFSET 2.466141 -1.576172 2.681732
									CHANNELS 6 Xposition Yposition Zposition Xrotation Yrotation Zrotation
									JOINT mixamorig:LeftHandThumb2
									{
										OFFSET 3.217812 -1.872070 1.916482
										CHANNELS 6 Xposition Yposition Zposition Xrotation Yrotation Zrotation
										JOINT mixamorig:LeftHandThumb3
										{
											OFFSET 2.656029 -1.528778 1.514513
											CHANNELS 6 Xposition Yposition Zposition Xrotation Yrotation Zrotation
											JOINT mixamorig:LeftHandThumb4
											{
												OFFSET 2.020889 -1.154053 1.115139
												CHANNELS 6 Xposition Yposition Zposition Xrotation Yrotation Zrotation
												End Site
												{
													OFFSET 190.885437 -115.081749 130.048782
												}
											}
										}
									}
								}
								JOINT mixamorig:LeftHandIndex1
								{
									OFFSET 9.109314 -0.518021 2.259871
									CHANNELS 6 Xposition Yposition Zposition Xrotation Yrotation Zrotation
									JOINT mixamorig:LeftHandIndex2
									{
										OFFSET 3.699989 0.000000 -0.000322
										CHANNELS 6 Xposition Yposition Zposition Xrotation Yrotation Zrotation
										JOINT mixamorig:LeftHandIndex3
										{
											OFFSET 2.850006 0.000000 0.000352
											CHANNELS 6 Xposition Yposition Zposition Xrotation Yrotation Zrotation
											JOINT mixamorig:LeftHandIndex4
											{
												OFFSET 2.774864 -0.000031 -0.000027
												CHANNELS 6 Xposition Yposition Zposition Xrotation Yrotation Zrotation
												End Site
												{
													OFFSET 277.486267 0.000000 -0.009857
												}
											}
										}
									}
								}
								JOINT mixamorig:LeftHandMiddle1
								{
									OFFSET 9.533394 0.000061 0.000044
									CHANNELS 6 Xposition Yposition Zposition Xrotation Yrotation Zrotation
									JOINT mixamorig:LeftHandMiddle2
									{
										OFFSET 3.699989 -0.000015 -0.000231
										CHANNELS 6 Xposition Yposition Zposition Xrotation Yrotation Zrotation
										JOINT mixamorig:LeftHandMiddle3
										{
											OFFSET 2.949997 -0.000015 -0.000059
											CHANNELS 6 Xposition Yposition Zposition Xrotation Yrotation Zrotation
											JOINT mixamorig:LeftHandMiddle4
											{
												OFFSET 2.952896 0.000031 0.000063
												CHANNELS 6 Xposition Yposition Zposition Xrotation Yrotation Zrotation
												End Site
												{
													OFFSET 295.289337 0.000000 0.022810
												}
											}
										}
									}
								}
								JOINT mixamorig:LeftHandRing1
								{
									OFFSET 9.104523 -0.042999 -1.865074
									CHANNELS 6 Xposition Yposition Zposition Xrotation Yrotation Zrotation
									JOINT mixamorig:LeftHandRing2
									{
										OFFSET 3.150009 -0.000031 0.000043
										CHANNELS 6 Xposition Yposition Zposition Xrotation Yrotation Zrotation
										JOINT mixamorig:LeftHandRing3
										{
											OFFSET 2.949982 -0.000015 0.000040
											CHANNELS 6 Xposition Yposition Zposition Xrotation Yrotation Zrotation
											JOINT mixamorig:LeftHandRing4
											{
												OFFSET 2.644348 0.000000 0.000057
												CHANNELS 6 Xposition Yposition Zposition Xrotation Yrotation Zrotation
												End Site
												{
													OFFSET 264.434631 0.000000 0.012105
												}
											}
										}
									}
								}
								JOINT mixamorig:LeftHandPinky1
								{
									OFFSET 8.077789 -0.486847 -3.806259
									CHANNELS 6 Xposition Yposition Zposition Xrotation Yrotation Zrotation
									JOINT mixamorig:LeftHandPinky2
									{
										OFFSET 3.599953 0.000031 0.014727
										CHANNELS 6 Xposition Yposition Zposition Xrotation Yrotation Zrotation
										JOINT mixamorig:LeftHandPinky3
										{
											OFFSET 2.100021 0.000015 0.007705
											CHANNELS 6 Xposition Yposition Zposition Xrotation Yrotation Zrotation
											JOINT mixamorig:LeftHandPinky4
											{
												OFFSET 2.125504 0.000031 0.007517
												CHANNELS 6 Xposition Yposition Zposition Xrotation Yrotation Zrotation
												End Site
												{
													OFFSET 212.550781 0.000000 0.625752
												}
											}
										}
									}
								}
							}
						}
					}
				}
			}
		}
	}
	JOINT mixamorig:RightUpLeg
	{
		OFFSET -8.207787 -6.751648 -1.599560
		CHANNELS 6 Xposition Yposition Zposition Xrotation Yrotation Zrotation
		JOINT mixamorig:RightLeg
		{
			OFFSET -0.000002 -44.370117 0.345942
			CHANNELS 6 Xposition Yposition Zposition Xrotation Yrotation Zrotation
			JOINT mixamorig:RightFoot
			{
				OFFSET 0.000003 -44.423679 -3.043532
				CHANNELS 6 Xposition Yposition Zposition Xrotation Yrotation Zrotation
				JOINT mixamorig:RightToeBase
				{
					OFFSET -0.000002 -8.728671 10.710558
					CHANNELS 6 Xposition Yposition Zposition Xrotation Yrotation Zrotation
					JOINT mixamorig:RightToe_End
					{
						OFFSET -0.000001 -0.000679 9.278119
						CHANNELS 6 Xposition Yposition Zposition Xrotation Yrotation Zrotation
						End Site
						{
							OFFSET 0.000000 -0.067690 927.812134
						}
					}
				}
			}
		}
	}
	JOINT mixamorig:LeftUpLeg
	{
		OFFSET 8.207793 -6.751686 -1.599556
		CHANNELS 6 Xposition Yposition Zposition Xrotation Yrotation Zrotation
		JOINT mixamorig:LeftLeg
		{
			OFFSET -0.000004 -44.370014 0.346954
			CHANNELS 6 Xposition Yposition Zposition Xrotation Yrotation Zrotation
			JOINT mixamorig:LeftFoot
			{
				OFFSET -0.000001 -44.423672 -3.044401
				CHANNELS 6 Xposition Yposition Zposition Xrotation Yrotation Zrotation
				JOINT mixamorig:LeftToeBase
				{
					OFFSET -0.000002 -8.728669 10.710558
					CHANNELS 6 Xposition Yposition Zposition Xrotation Yrotation Zrotation
					JOINT mixamorig:LeftToe_End
					{
						OFFSET -0.000003 -0.000679 9.278133
						CHANNELS 6 Xposition Yposition Zposition Xrotation Yrotation Zrotation
						End Site
						{
							OFFSET 0.000000 -0.068021 927.813477
						}
					}
				}
			}
		}
	}
}
MOTION
Frames: 3
Frame Time: 0.033333
0.000006 104.270477 1.554256 0.000010 0.000003 -0.000113 -0.000005 10.181587 0.131522 0.000001 -0.000003 0.000084 -0.000000 9.893967 -1.470711 0.000001 0.000000 -0.000000 -0.000000 9.220802 -1.370642 0.000000 -0.000000 -0.000000 0.000001 16.740433 -2.049030 0.000000 -0.000000 -0.000000 0.000000 9.617859 1.685014 0.000000 0.000000 0.000000 0.000002 22.037384 7.501101 0.000000 -0.000000 0.000000 -4.569968 11.014880 -2.160881 0.000008 0.000001 -0.000038 -10.592771 -0.524849 -2.231747 83.612314 64.902964 -59.250846 -27.841482 -0.000003 0.000587 38.289880 104.890573 -48.601574 -28.328831 0.000006 0.000032 -0.000318 -0.000044 0.000008 -2.464429 -1.574143 2.682112 73.182745 -110.493664 118.865919 -3.214764 -1.872931 1.924678 188.567917 -52.654690 243.418489 -2.654433 -1.527874 1.513115 322.347882 202.485329 3.755902 -2.018838 -1.152018 1.108065 -0.000005 -0.000001 0.000004 -9.108092 -0.517683 2.260422 370.358484 167.812215 -80.697667 -3.699973 0.000008 0.001786 165.640789 10.021791 -69.498766 -2.850049 0.000284 -0.000034 149.188052 4.377512 -15.789726 -2.772155 -0.000013 -0.000024 -0.000001 -0.000000 -0.000000 -9.532269 -0.000085 0.000546 179.222579 9.009547 -171.710915 -3.700017 0.000271 0.004213 152.361084 1.134429 -4.272820 -2.949970 0.000343 -0.001642 134.700469 -3.935914 9.427672 -2.946625 0.000014 -0.000154 0.000000 0.000000 -0.000000 -9.103653 -0.042969 -1.864595 161.993236 7.757429 -46.059937 -3.379088 0.000151 -0.001102 390.601334 -33.569591 9.435832 -2.889566 0.000013 0.000326 358.765849 -25.918254 -0.274182 -2.638809 -0.000011 0.000941 -0.000000 -0.000000 0.000000 -8.076662 -0.486445 -3.805745 163.562294 -0.978188 7.543622 -3.599686 -0.000040 -0.003757 366.699524 -54.959148 3.337689 -2.099779 -0.000056 -0.005797 347.158462 -33.752674 -3.992292 -2.115788 -0.000071 -0.003679 0.000001 -0.000000 -0.000004 4.570446 11.014691 -2.160851 -0.000018 0.000010 -0.000021 10.592520 -0.524542 -2.232384 62.041129 -65.701092 42.441942 27.841782 -0.000061 -0.000124 214.713198 -79.318358 221.314330 28.328840 -0.000043 0.000016 0.000020 -0.000089 -0.000000 2.466118 -1.576178 2.681864 -74.720958 53.396606 30.730937 3.217797 -1.872032 1.916529 56.534125 131.903302 245.872275 2.655973 -1.528794 1.514613 17.397245 138.755880 -80.193272 2.020883 -1.154033 1.115144 0.000001 0.000005 0.000006 9.109141 -0.517689 2.260041 28.635986 -165.230691 126.171380 3.700145 0.000211 -0.000340 -386.672691 -168.096256 227.550594 2.850031 0.000282 0.000203 -254.797967 -2.892199 3.780910 2.774879 -0.000031 -0.000028 -0.000000 -0.000000 0.000000 9.533223 0.000393 0.000210 -156.224062 -12.472179 -54.853324 3.700048 0.000363 -0.000257 153.922056 -2.214145 9.529463 2.949975 0.000249 -0.000225 102.516570 6.228597 -7.756041 2.952880 -0.000013 0.000063 -0.000002 0.000006 0.000000 9.104287 -0.042953 -1.864984 -176.214154 -10.198720 -139.345216 3.149875 0.000283 -0.000169 96.330755 25.903405 -28.815373 2.949952 0.000039 -0.000086 22.824124 19.338714 -3.939520 2.644338 0.000015 0.000057 0.000003 -0.000001 0.000001 8.077520 -0.486757 -3.806172 -176.764339 -6.784495 -125.927665 3.599764 0.000093 0.014549 78.612329 61.935793 -52.490178 2.099981 0.000011 0.007659 3.814041 23.546124 -0.866860 2.125498 -0.000017 0.007513 -0.000001 -0.000002 0.000002 -8.207786 -6.751667 -1.599560 -0.077001 -0.000003 0.000080 -0.000002 -44.370110 0.345938 0.153719 -0.000000 -0.000000 0.000000 -44.423679 -3.043532 -0.076700 0.000000 -0.000002 -0.000006 -8.728667 10.710559 -0.000009 -0.000000 -0.000000 -0.000001 -0.000679 9.278123 0.000000 -0.000000 -0.000000 8.207792 -6.751710 -1.599556 -0.074518 -0.000003 0.000081 -0.000002 -44.370014 0.346960 0.148822 0.000002 0.000000 -0.000001 -44.423664 -3.044403 -0.074314 0.000000 -0.000002 -0.000004 -8.728671 10.710558 0.000007 -0.000000 -0.000000 0.000000 -0.000680 9.278137 -0.000000 0.000000 -0.000001 
0.000006 104.270477 1.554256 0.000010 0.000003 -0.000113 -0.000005 10.181587 0.131522 0.000001 -0.000003 0.000084 -0.000000 9.893967 -1.470711 0.000001 0.000000 -0.000000 -0.000000 9.220802 -1.370642 0.000000 -0.000000 -0.000000 0.000001 16.740433 -2.049030 0.000000 -0.000000 -0.000000 0.000000 9.617859 1.685014 0.000000 0.000000 0.000000 0.000002 22.037384 7.501101 0.000000 -0.000000 0.000000 -4.569968 11.014880 -2.160881 0.000008 0.000001 -0.000038 -10.592776 -0.524847 -2.231742 83.406964 64.141767 -58.352806 -27.841488 0.000017 0.000580 40.010890 104.414680 -50.299210 -28.328835 0.000006 0.000027 -0.000322 -0.000044 0.000006 -2.464427 -1.574167 2.682111 74.896316 -110.984782 120.586238 -3.214737 -1.872931 1.924675 187.618480 -52.745685 242.231785 -2.654434 -1.527903 1.513104 323.661409 205.066130 5.904532 -2.018823 -1.151997 1.108065 -0.000004 -0.000005 0.000000 -9.108080 -0.517675 2.260422 368.120640 169.886858 -77.529436 -3.700022 0.000053 0.001762 164.458852 7.962109 -53.868705 -2.850037 0.000304 -0.000045 149.302840 3.290386 -11.944323 -2.772151 0.000001 -0.000023 -0.000000 -0.000000 0.000001 -9.532347 -0.000100 0.000541 176.365129 7.199369 -128.644100 -3.699982 0.000287 0.004192 151.898858 -0.608329 2.740924 -2.949967 0.000360 -0.001634 138.073107 -2.557172 6.682512 -2.946619 0.000010 -0.000152 -0.000001 0.000001 -0.000002 -9.103645 -0.042903 -1.864598 160.895816 5.010010 -28.894753 -3.379040 0.000148 -0.001112 394.526124 -39.455322 12.719065 -2.889584 0.000001 0.000335 358.125861 -24.481592 -0.397130 -2.638802 -0.000011 0.000941 0.000004 -0.000002 0.000000 -8.076636 -0.486444 -3.805754 162.980376 -2.467884 17.055184 -3.599676 -0.000057 -0.003745 361.724742 -59.141003 0.804391 -2.099805 -0.000085 -0.005782 343.724981 -32.465033 -4.853076 -2.115777 -0.000037 -0.003679 -0.000000 0.000000 -0.000003 4.570446 11.014691 -2.160851 -0.000018 0.000010 -0.000021 10.592517 -0.524534 -2.232389 62.658824 -65.143667 42.498912 27.841772 -0.000030 -0.000135 217.212829 -79.219983 224.274015 28.328833 -0.000044 0.000020 0.000021 -0.000087 -0.000000 2.466112 -1.576165 2.681877 -74.148889 53.618607 30.380763 3.217777 -1.872019 1.916539 56.381651 129.891961 247.145477 2.655969 -1.528827 1.514617 16.172112 136.784155 -77.317045 2.020899 -1.154060 1.115147 0.000001 0.000003 0.000002 9.109138 -0.517696 2.260048 28.746511 -165.684420 127.799724 3.700131 0.000191 -0.000316 -381.065953 -168.876577 235.374384 2.850025 0.000309 0.000231 -244.054188 -1.990983 3.180582 2.774871 -0.000045 -0.000027 0.000001 -0.000000 0.000000 9.533216 0.000399 0.000212 -155.701307 -12.612743 -54.334858 3.700054 0.000373 -0.000238 161.608040 -2.163042 13.287146 2.949934 0.000293 -0.000223 114.766562 9.939474 -15.473194 2.952852 -0.000047 0.000075 0.000000 0.000000 0.000002 9.104317 -0.042991 -1.864992 -177.431266 -10.307681 -152.069353 3.149856 0.000231 -0.000172 89.113512 32.954782 -32.475203 2.949924 0.000010 -0.000077 17.184274 23.467348 -3.595154 2.644318 0.000033 0.000058 -0.000002 -0.000001 -0.000000 8.077511 -0.486737 -3.806180 -177.334387 -5.272704 -122.765233 3.599825 0.000048 0.014585 51.132855 69.450292 -36.916824 2.099963 -0.000020 0.007662 -1.710170 25.585585 0.290555 2.125509 -0.000027 0.007519 -0.000000 -0.000002 -0.000002 -8.207786 -6.751667 -1.599560 -0.077001 -0.000003 0.000080 -0.000002 -44.370110 0.345938 0.153719 -0.000000 -0.000000 0.000000 -44.423679 -3.043532 -0.076700 0.000000 -0.000002 -0.000006 -8.728667 10.710559 -0.000009 -0.000000 -0.000000 -0.000001 -0.000679 9.278123 0.000000 -0.000000 -0.000000 8.207792 -6.751710 -1.599556 -0.074518 -0.000003 0.000081 -0.000002 -44.370014 0.346960 0.148822 0.000002 0.000000 -0.000001 -44.423664 -3.044403 -0.074314 0.000000 -0.000002 -0.000004 -8.728671 10.710558 0.000007 -0.000000 -0.000000 0.000000 -0.000680 9.278137 -0.000000 0.000000 -0.000001 
0.000006 104.270477 1.554256 0.000010 0.000003 -0.000113 -0.000005 10.181587 0.131522 0.000001 -0.000003 0.000084 -0.000000 9.893967 -1.470711 0.000001 0.000000 -0.000000 -0.000000 9.220802 -1.370642 0.000000 -0.000000 -0.000000 0.000001 16.740433 -2.049030 0.000000 -0.000000 -0.000000 0.000000 9.617859 1.685014 0.000000 0.000000 0.000000 0.000002 22.037384 7.501101 0.000000 -0.000000 0.000000 -4.569968 11.014880 -2.160881 0.000008 0.000001 -0.000038 -10.592773 -0.524850 -2.231744 82.893887 64.005402 -57.785559 -27.841490 0.000004 0.000572 40.941663 104.416865 -51.413009 -28.328842 0.000006 0.000023 -0.000320 -0.000045 0.000007 -2.464433 -1.574136 2.682114 77.346339 -111.449897 122.911535 -3.214741 -1.872919 1.924683 189.867538 -53.236783 244.560387 -2.654442 -1.527951 1.513118 329.966739 209.666658 17.062120 -2.018830 -1.152013 1.108076 -0.000003 -0.000000 0.000000 -9.108097 -0.517685 2.260435 369.298110 169.116481 -81.006638 -3.699994 0.000049 0.001771 164.982427 9.157270 -62.385630 -2.850064 0.000263 -0.000056 145.275555 3.916594 -12.479298 -2.772173 -0.000018 -0.000013 0.000001 -0.000002 0.000004 -9.532276 -0.000067 0.000561 178.199075 8.552697 -158.021549 -3.700013 0.000260 0.004209 154.325502 0.902297 -3.596799 -2.949968 0.000343 -0.001622 138.587093 -1.878165 4.981113 -2.946622 0.000013 -0.000165 -0.000002 0.000002 0.000002 -9.103655 -0.042942 -1.864588 162.418784 6.269091 -38.722385 -3.379056 0.000091 -0.001108 383.311637 -36.746961 7.841551 -2.889584 0.000009 0.000320 357.193267 -24.327175 -0.595318 -2.638821 0.000006 0.000941 0.000002 -0.000001 0.000002 -8.076640 -0.486433 -3.805746 164.193677 -1.496751 11.526729 -3.599700 -0.000076 -0.003767 356.179940 -54.309880 -2.128243 -2.099821 -0.000086 -0.005814 345.196996 -32.029872 -4.352697 -2.115759 -0.000043 -0.003678 -0.000001 0.000000 -0.000004 4.570446 11.014691 -2.160851 -0.000018 0.000010 -0.000021 10.592520 -0.524542 -2.232392 63.494825 -65.159936 43.148439 27.841774 -0.000041 -0.000122 218.129468 -79.243602 225.313857 28.328835 -0.000029 0.000022 0.000019 -0.000089 -0.000001 2.466131 -1.576190 2.681840 -70.728228 52.173093 27.771505 3.217809 -1.872026 1.916533 57.175992 128.904193 247.041112 2.655956 -1.528829 1.514609 13.226152 135.769175 -73.155083 2.020903 -1.154032 1.115145 0.000002 0.000002 0.000001 9.109175 -0.517696 2.260038 31.450463 -166.366251 134.007137 3.700127 0.000231 -0.000328 -382.519253 -169.363625 230.204723 2.850012 0.000305 0.000208 -245.665676 -0.753668 1.166254 2.774879 -0.000046 -0.000024 0.000001 0.000000 -0.000000 9.533237 0.000395 0.000197 -154.900180 -12.385519 -51.959920 3.700043 0.000345 -0.000223 162.778229 -1.973609 12.962282 2.949925 0.000329 -0.000201 121.508710 10.632525 -18.868019 2.952868 -0.000019 0.000056 0.000004 -0.000001 0.000002 9.104294 -0.042935 -1.865000 -176.374459 -9.564305 -138.545415 3.149865 0.000204 -0.000191 78.851126 35.231434 -29.260988 2.949945 0.000044 -0.000081 18.210024 23.865241 -3.879629 2.644316 0.000028 0.000055 0.000000 -0.000003 0.000001 8.077555 -0.486555 -3.806178 -175.220307 -3.603882 -75.616587 3.599784 0.000052 0.014588 51.569120 66.212148 -35.169778 2.099971 -0.000002 0.007661 2.328253 27.302093 -0.656269 2.125510 -0.000009 0.007529 -0.000003 0.000001 0.000003 -8.207786 -6.751667 -1.599560 -0.077001 -0.000003 0.000080 -0.000002 -44.370110 0.345938 0.153719 -0.000000 -0.000000 0.000000 -44.423679 -3.043532 -0.076700 0.000000 -0.000002 -0.000006 -8.728667 10.710559 -0.000009 -0.000000 -0.000000 -0.000001 -0.000679 9.278123 0.000000 -0.000000 -0.000000 8.207792 -6.751710 -1.599556 -0.074518 -0.000003 0.000081 -0.000002 -44.370014 0.346960 0.148822 0.000002 0.000000 -0.000001 -44.423664 -3.044403 -0.074314 0.000000 -0.000002 -0.000004 -8.728671 10.710558 0.000007 -0.000000 -0.000000 0.000000 -0.000680 9.278137 -0.000000 0.000000 -0.000001 
